<svg xmlns="http://www.w3.org/2000/svg" xmlns:xlink="http://www.w3.org/1999/xlink" width="500" zoomAndPan="magnify" viewBox="0 0 375 374.999991" height="500" preserveAspectRatio="xMidYMid meet" version="1.2"><defs><clipPath id="0e60ffda85"><path d="M 39.683594 37.5 L 335 37.5 L 335 337.5 L 39.683594 337.5 Z M 39.683594 37.5 "/></clipPath></defs><g id="a0c6588076"><path style=" stroke:none;fill-rule:nonzero;fill:#23838a;fill-opacity:1;" d="M 220.65625 187.433594 C 220.65625 188.601562 220.597656 189.769531 220.484375 190.929688 C 220.371094 192.09375 220.199219 193.25 219.96875 194.394531 C 219.742188 195.542969 219.457031 196.671875 219.121094 197.792969 C 218.78125 198.910156 218.386719 200.007812 217.941406 201.089844 C 217.492188 202.167969 216.992188 203.222656 216.441406 204.253906 C 215.890625 205.285156 215.292969 206.285156 214.640625 207.257812 C 213.992188 208.230469 213.296875 209.167969 212.554688 210.070312 C 211.816406 210.976562 211.03125 211.839844 210.203125 212.664062 C 209.378906 213.492188 208.511719 214.277344 207.609375 215.019531 C 206.707031 215.757812 205.769531 216.453125 204.796875 217.105469 C 203.824219 217.753906 202.824219 218.351562 201.792969 218.902344 C 200.761719 219.453125 199.707031 219.953125 198.628906 220.402344 C 197.546875 220.847656 196.449219 221.242188 195.332031 221.582031 C 194.210938 221.921875 193.078125 222.203125 191.933594 222.433594 C 190.785156 222.660156 189.632812 222.832031 188.46875 222.945312 C 187.304688 223.058594 186.140625 223.117188 184.972656 223.117188 C 183.804688 223.117188 182.636719 223.058594 181.472656 222.945312 C 180.3125 222.832031 179.15625 222.660156 178.011719 222.433594 C 176.863281 222.203125 175.730469 221.921875 174.613281 221.582031 C 173.496094 221.242188 172.394531 220.847656 171.316406 220.402344 C 170.234375 219.953125 169.179688 219.453125 168.148438 218.902344 C 167.121094 218.351562 166.117188 217.753906 165.144531 217.105469 C 164.175781 216.453125 163.238281 215.757812 162.332031 215.019531 C 161.429688 214.277344 160.566406 213.492188 159.738281 212.664062 C 158.914062 211.839844 158.128906 210.976562 157.386719 210.070312 C 156.644531 209.167969 155.949219 208.230469 155.300781 207.257812 C 154.652344 206.285156 154.050781 205.285156 153.5 204.253906 C 152.949219 203.222656 152.449219 202.167969 152.003906 201.089844 C 151.554688 200.007812 151.164062 198.910156 150.824219 197.792969 C 150.484375 196.671875 150.199219 195.542969 149.972656 194.394531 C 149.746094 193.25 149.574219 192.09375 149.457031 190.929688 C 149.34375 189.769531 149.285156 188.601562 149.285156 187.433594 C 149.285156 186.265625 149.34375 185.097656 149.457031 183.933594 C 149.574219 182.773438 149.746094 181.617188 149.972656 180.472656 C 150.199219 179.324219 150.484375 178.191406 150.824219 177.074219 C 151.164062 175.957031 151.554688 174.855469 152.003906 173.777344 C 152.449219 172.699219 152.949219 171.640625 153.5 170.613281 C 154.050781 169.582031 154.652344 168.578125 155.300781 167.609375 C 155.949219 166.636719 156.644531 165.699219 157.386719 164.792969 C 158.128906 163.890625 158.914062 163.027344 159.738281 162.199219 C 160.566406 161.375 161.429688 160.589844 162.332031 159.847656 C 163.238281 159.105469 164.175781 158.410156 165.144531 157.761719 C 166.117188 157.113281 167.121094 156.511719 168.148438 155.960938 C 169.179688 155.410156 170.234375 154.910156 171.316406 154.464844 C 172.394531 154.015625 173.496094 153.625 174.613281 153.285156 C 175.730469 152.945312 176.863281 152.660156 178.011719 152.433594 C 179.15625 152.207031 180.3125 152.035156 181.472656 151.921875 C 182.636719 151.804688 183.804688 151.75 184.972656 151.75 C 186.140625 151.75 187.304688 151.804688 188.46875 151.921875 C 189.632812 152.035156 190.785156 152.207031 191.933594 152.433594 C 193.078125 152.660156 194.210938 152.945312 195.332031 153.285156 C 196.449219 153.625 197.546875 154.015625 198.628906 154.464844 C 199.707031 154.910156 200.761719 155.410156 201.792969 155.960938 C 202.824219 156.511719 203.824219 157.113281 204.796875 157.761719 C 205.769531 158.410156 206.707031 159.105469 207.609375 159.847656 C 208.511719 160.589844 209.378906 161.375 210.203125 162.199219 C 211.03125 163.027344 211.816406 163.890625 212.554688 164.792969 C 213.296875 165.699219 213.992188 166.636719 214.640625 167.609375 C 215.292969 168.578125 215.890625 169.582031 216.441406 170.613281 C 216.992188 171.640625 217.492188 172.699219 217.941406 173.777344 C 218.386719 174.855469 218.78125 175.957031 219.121094 177.074219 C 219.457031 178.191406 219.742188 179.324219 219.96875 180.472656 C 220.199219 181.617188 220.371094 182.773438 220.484375 183.933594 C 220.597656 185.097656 220.65625 186.265625 220.65625 187.433594 Z M 220.65625 187.433594 "/><g clip-rule="nonzero" clip-path="url(#0e60ffda85)"><path style=" stroke:none;fill-rule:nonzero;fill:#23838a;fill-opacity:1;" d="M 184.972656 37.582031 C 115.144531 37.582031 56.480469 85.347656 39.839844 149.96875 C 39.683594 150.554688 39.601562 151.144531 39.59375 151.75 C 39.59375 155.667969 42.78125 158.886719 46.730469 158.886719 L 107.15625 158.886719 C 107.84375 158.886719 108.511719 158.792969 109.167969 158.601562 C 109.824219 158.40625 110.441406 158.125 111.015625 157.753906 C 111.589844 157.382812 112.097656 156.9375 112.542969 156.417969 C 112.988281 155.898438 113.351562 155.328125 113.628906 154.703125 C 113.628906 154.703125 113.71875 154.53125 113.757812 154.441406 C 126.214844 127.566406 153.417969 108.914062 184.996094 108.914062 C 228.355469 108.914062 263.503906 144.050781 263.503906 187.40625 C 263.503906 230.765625 228.367188 265.898438 185.011719 265.898438 C 153.445312 265.898438 126.242188 247.246094 113.773438 220.371094 C 113.734375 220.28125 113.640625 220.109375 113.640625 220.109375 C 112.492188 217.574219 109.957031 215.929688 107.171875 215.929688 L 46.742188 215.929688 C 42.792969 215.929688 39.605469 219.117188 39.605469 223.066406 C 39.613281 223.667969 39.695312 224.261719 39.855469 224.84375 C 56.492188 289.46875 115.171875 337.230469 184.984375 337.230469 C 267.753906 337.21875 334.964844 270.136719 334.964844 187.378906 C 334.964844 104.625 267.871094 37.53125 185.117188 37.53125 Z M 184.972656 37.582031 "/></g></g></svg>