<svg width="28" height="24" viewBox="0 0 28 24" fill="none" xmlns="http://www.w3.org/2000/svg">
<path d="M25.3601 12.2332C25.3601 11.3699 25.2795 10.7399 25.1051 10.0865H13.7676V13.9832H20.4225C20.2884 14.9515 19.5638 16.4099 17.9537 17.3898L17.9312 17.5203L21.5159 19.935L21.7642 19.9565C24.0451 18.1249 25.3601 15.4298 25.3601 12.2332Z" fill="#4285F4"/>
<path d="M13.7669 22.5C17.0273 22.5 19.7644 21.5666 21.7636 19.9566L17.9531 17.3898C16.9334 18.0082 15.5648 18.4399 13.7669 18.4399C10.5737 18.4399 7.86342 16.6082 6.89729 14.0765L6.75568 14.087L3.02824 16.5954L2.97949 16.7132C4.96522 20.1432 9.04405 22.5 13.7669 22.5Z" fill="#34A853"/>
<path d="M6.89724 14.0766C6.64232 13.4233 6.49479 12.7232 6.49479 11.9999C6.49479 11.2765 6.64232 10.5766 6.88383 9.92325L6.87708 9.78411L3.10291 7.23547L2.97943 7.28655C2.16101 8.7099 1.69141 10.3083 1.69141 11.9999C1.69141 13.6916 2.16101 15.2899 2.97943 16.7132L6.89724 14.0766Z" fill="#FBBC05"/>
<path d="M13.767 5.55997C16.0345 5.55997 17.564 6.41163 18.4362 7.12335L21.8442 4.23C19.7511 2.53834 17.0274 1.5 13.767 1.5C9.04409 1.5 4.96523 3.85665 2.97949 7.28662L6.8839 9.92332C7.86345 7.39166 10.5737 5.55997 13.767 5.55997Z" fill="#EB4335"/>
</svg>
